<mxfile host="app.diagrams.net" modified="2024-01-05T15:09:33.193Z" agent="Mozilla/5.0 (Windows NT 10.0; Win64; x64; rv:121.0) Gecko/20100101 Firefox/121.0" etag="F0Ep6J15n95XO9YzzsUq" version="22.1.16" type="device">
  <diagram name="Page-1" id="-HIV8cWDAr2iRvP56if5">
    <mxGraphModel dx="1235" dy="633" grid="1" gridSize="10" guides="1" tooltips="1" connect="1" arrows="1" fold="1" page="0" pageScale="1" pageWidth="850" pageHeight="1100" background="none" math="0" shadow="0">
      <root>
        <mxCell id="0" />
        <mxCell id="1" parent="0" />
        <mxCell id="_SwUfsmoG6oZr8ZcNo1T-2" value="Game" style="rounded=0;whiteSpace=wrap;html=1;fillColor=#dae8fc;strokeColor=#6c8ebf;" parent="1" vertex="1">
          <mxGeometry x="300" y="110" width="100" height="50" as="geometry" />
        </mxCell>
        <mxCell id="_SwUfsmoG6oZr8ZcNo1T-3" value="&lt;div&gt;Game Model&lt;/div&gt;" style="rounded=0;whiteSpace=wrap;html=1;fillColor=#d5e8d4;strokeColor=#82b366;" parent="1" vertex="1">
          <mxGeometry x="300" y="220" width="100" height="50" as="geometry" />
        </mxCell>
        <mxCell id="_SwUfsmoG6oZr8ZcNo1T-4" value="" style="endArrow=classic;html=1;rounded=0;entryX=0.5;entryY=1;entryDx=0;entryDy=0;" parent="1" target="_SwUfsmoG6oZr8ZcNo1T-2" edge="1">
          <mxGeometry width="50" height="50" relative="1" as="geometry">
            <mxPoint x="350" y="190" as="sourcePoint" />
            <mxPoint x="410" y="160" as="targetPoint" />
          </mxGeometry>
        </mxCell>
        <mxCell id="_SwUfsmoG6oZr8ZcNo1T-5" value="Key Input" style="rounded=0;whiteSpace=wrap;html=1;fillColor=#d5e8d4;strokeColor=#82b366;" parent="1" vertex="1">
          <mxGeometry x="410" y="220" width="100" height="50" as="geometry" />
        </mxCell>
        <mxCell id="_SwUfsmoG6oZr8ZcNo1T-8" value="" style="endArrow=none;html=1;rounded=0;exitX=0.5;exitY=0;exitDx=0;exitDy=0;" parent="1" source="_SwUfsmoG6oZr8ZcNo1T-5" edge="1">
          <mxGeometry width="50" height="50" relative="1" as="geometry">
            <mxPoint x="400" y="300" as="sourcePoint" />
            <mxPoint x="460" y="190" as="targetPoint" />
          </mxGeometry>
        </mxCell>
        <mxCell id="_SwUfsmoG6oZr8ZcNo1T-9" value="&lt;div&gt;Sound&lt;/div&gt;&lt;div&gt;Component&lt;/div&gt;" style="rounded=0;whiteSpace=wrap;html=1;fillColor=#d5e8d4;strokeColor=#82b366;" parent="1" vertex="1">
          <mxGeometry x="190" y="220" width="100" height="50" as="geometry" />
        </mxCell>
        <mxCell id="_SwUfsmoG6oZr8ZcNo1T-10" value="" style="endArrow=none;html=1;rounded=0;exitX=0.5;exitY=0;exitDx=0;exitDy=0;" parent="1" source="_SwUfsmoG6oZr8ZcNo1T-9" edge="1">
          <mxGeometry width="50" height="50" relative="1" as="geometry">
            <mxPoint x="400" y="280" as="sourcePoint" />
            <mxPoint x="240" y="190" as="targetPoint" />
          </mxGeometry>
        </mxCell>
        <mxCell id="_SwUfsmoG6oZr8ZcNo1T-11" value="" style="endArrow=none;html=1;rounded=0;exitX=0.5;exitY=0;exitDx=0;exitDy=0;" parent="1" source="_SwUfsmoG6oZr8ZcNo1T-3" edge="1">
          <mxGeometry width="50" height="50" relative="1" as="geometry">
            <mxPoint x="400" y="280" as="sourcePoint" />
            <mxPoint x="350" y="190" as="targetPoint" />
          </mxGeometry>
        </mxCell>
        <mxCell id="_SwUfsmoG6oZr8ZcNo1T-12" value="&lt;div&gt;Collision&amp;nbsp;&lt;/div&gt;&lt;div&gt;Resolver&lt;br&gt;&lt;/div&gt;" style="rounded=0;whiteSpace=wrap;html=1;fillColor=#d5e8d4;strokeColor=#82b366;" parent="1" vertex="1">
          <mxGeometry x="80" y="220" width="100" height="50" as="geometry" />
        </mxCell>
        <mxCell id="_SwUfsmoG6oZr8ZcNo1T-13" value="&lt;div&gt;Scene&lt;/div&gt;&lt;div&gt;Manager&lt;/div&gt;" style="rounded=0;whiteSpace=wrap;html=1;fillColor=#d5e8d4;strokeColor=#82b366;" parent="1" vertex="1">
          <mxGeometry x="520" y="220" width="100" height="50" as="geometry" />
        </mxCell>
        <mxCell id="_SwUfsmoG6oZr8ZcNo1T-15" value="" style="endArrow=none;html=1;rounded=0;" parent="1" source="_SwUfsmoG6oZr8ZcNo1T-12" edge="1">
          <mxGeometry width="50" height="50" relative="1" as="geometry">
            <mxPoint x="110" y="240" as="sourcePoint" />
            <mxPoint x="130" y="190" as="targetPoint" />
          </mxGeometry>
        </mxCell>
        <mxCell id="_SwUfsmoG6oZr8ZcNo1T-17" value="" style="endArrow=none;html=1;rounded=0;exitX=0.5;exitY=0;exitDx=0;exitDy=0;" parent="1" source="_SwUfsmoG6oZr8ZcNo1T-13" edge="1">
          <mxGeometry width="50" height="50" relative="1" as="geometry">
            <mxPoint x="620" y="180" as="sourcePoint" />
            <mxPoint x="570" y="190" as="targetPoint" />
          </mxGeometry>
        </mxCell>
        <mxCell id="_SwUfsmoG6oZr8ZcNo1T-19" value="Player" style="rounded=0;whiteSpace=wrap;html=1;fillColor=#dae8fc;strokeColor=#6c8ebf;" parent="1" vertex="1">
          <mxGeometry x="300" y="390" width="100" height="50" as="geometry" />
        </mxCell>
        <mxCell id="_SwUfsmoG6oZr8ZcNo1T-21" value="&lt;div&gt;Main Menu /&lt;/div&gt;&lt;div&gt;Game Won etc.&lt;/div&gt;" style="rounded=0;whiteSpace=wrap;html=1;fillColor=#d5e8d4;strokeColor=#82b366;" parent="1" vertex="1">
          <mxGeometry x="460" y="110" width="100" height="50" as="geometry" />
        </mxCell>
        <mxCell id="_SwUfsmoG6oZr8ZcNo1T-22" value="" style="endArrow=classic;html=1;rounded=0;entryX=1;entryY=0.5;entryDx=0;entryDy=0;exitX=0;exitY=0.5;exitDx=0;exitDy=0;" parent="1" source="_SwUfsmoG6oZr8ZcNo1T-21" target="_SwUfsmoG6oZr8ZcNo1T-2" edge="1">
          <mxGeometry width="50" height="50" relative="1" as="geometry">
            <mxPoint x="230" y="320" as="sourcePoint" />
            <mxPoint x="280" y="270" as="targetPoint" />
          </mxGeometry>
        </mxCell>
        <mxCell id="_SwUfsmoG6oZr8ZcNo1T-23" value="&lt;div&gt;Player Controller&lt;/div&gt;" style="rounded=0;whiteSpace=wrap;html=1;fillColor=#fff2cc;strokeColor=#d6b656;" parent="1" vertex="1">
          <mxGeometry x="140" y="390" width="100" height="50" as="geometry" />
        </mxCell>
        <mxCell id="_SwUfsmoG6oZr8ZcNo1T-24" value="" style="endArrow=classic;html=1;rounded=0;entryX=0;entryY=0.5;entryDx=0;entryDy=0;exitX=1;exitY=0.5;exitDx=0;exitDy=0;" parent="1" source="_SwUfsmoG6oZr8ZcNo1T-23" target="_SwUfsmoG6oZr8ZcNo1T-19" edge="1">
          <mxGeometry width="50" height="50" relative="1" as="geometry">
            <mxPoint x="230" y="290" as="sourcePoint" />
            <mxPoint x="280" y="240" as="targetPoint" />
          </mxGeometry>
        </mxCell>
        <mxCell id="_SwUfsmoG6oZr8ZcNo1T-25" value="&lt;div&gt;Lives&lt;/div&gt;" style="rounded=0;whiteSpace=wrap;html=1;fillColor=#f8cecc;strokeColor=#b85450;" parent="1" vertex="1">
          <mxGeometry x="460" y="300" width="100" height="50" as="geometry" />
        </mxCell>
        <mxCell id="_SwUfsmoG6oZr8ZcNo1T-27" value="&lt;div&gt;Available Projectiles&lt;/div&gt;" style="rounded=0;whiteSpace=wrap;html=1;fillColor=#f8cecc;strokeColor=#b85450;" parent="1" vertex="1">
          <mxGeometry x="460" y="360" width="100" height="50" as="geometry" />
        </mxCell>
        <mxCell id="_SwUfsmoG6oZr8ZcNo1T-28" value="Player Number" style="rounded=0;whiteSpace=wrap;html=1;fillColor=#f8cecc;strokeColor=#b85450;" parent="1" vertex="1">
          <mxGeometry x="460" y="420" width="100" height="50" as="geometry" />
        </mxCell>
        <mxCell id="_SwUfsmoG6oZr8ZcNo1T-29" value="" style="endArrow=classic;html=1;rounded=0;entryX=1;entryY=0.5;entryDx=0;entryDy=0;" parent="1" target="_SwUfsmoG6oZr8ZcNo1T-19" edge="1">
          <mxGeometry width="50" height="50" relative="1" as="geometry">
            <mxPoint x="430" y="415" as="sourcePoint" />
            <mxPoint x="280" y="240" as="targetPoint" />
          </mxGeometry>
        </mxCell>
        <mxCell id="_SwUfsmoG6oZr8ZcNo1T-30" value="" style="endArrow=none;html=1;rounded=0;" parent="1" edge="1">
          <mxGeometry width="50" height="50" relative="1" as="geometry">
            <mxPoint x="430" y="490" as="sourcePoint" />
            <mxPoint x="430" y="390" as="targetPoint" />
            <Array as="points">
              <mxPoint x="430" y="450" />
            </Array>
          </mxGeometry>
        </mxCell>
        <mxCell id="_SwUfsmoG6oZr8ZcNo1T-31" value="" style="endArrow=none;html=1;rounded=0;entryX=0;entryY=0.5;entryDx=0;entryDy=0;" parent="1" target="_SwUfsmoG6oZr8ZcNo1T-28" edge="1">
          <mxGeometry width="50" height="50" relative="1" as="geometry">
            <mxPoint x="430" y="445" as="sourcePoint" />
            <mxPoint x="280" y="240" as="targetPoint" />
          </mxGeometry>
        </mxCell>
        <mxCell id="_SwUfsmoG6oZr8ZcNo1T-32" value="" style="endArrow=none;html=1;rounded=0;" parent="1" edge="1">
          <mxGeometry width="50" height="50" relative="1" as="geometry">
            <mxPoint x="430" y="506.25" as="sourcePoint" />
            <mxPoint x="430" y="323.75" as="targetPoint" />
            <Array as="points">
              <mxPoint x="430" y="381.25" />
            </Array>
          </mxGeometry>
        </mxCell>
        <mxCell id="_SwUfsmoG6oZr8ZcNo1T-33" value="" style="endArrow=none;html=1;rounded=0;entryX=0;entryY=0.5;entryDx=0;entryDy=0;" parent="1" target="_SwUfsmoG6oZr8ZcNo1T-27" edge="1">
          <mxGeometry width="50" height="50" relative="1" as="geometry">
            <mxPoint x="430" y="385" as="sourcePoint" />
            <mxPoint x="380" y="390" as="targetPoint" />
          </mxGeometry>
        </mxCell>
        <mxCell id="_SwUfsmoG6oZr8ZcNo1T-34" value="" style="endArrow=none;html=1;rounded=0;entryX=0;entryY=0.5;entryDx=0;entryDy=0;" parent="1" target="_SwUfsmoG6oZr8ZcNo1T-25" edge="1">
          <mxGeometry width="50" height="50" relative="1" as="geometry">
            <mxPoint x="430" y="325" as="sourcePoint" />
            <mxPoint x="380" y="390" as="targetPoint" />
            <Array as="points" />
          </mxGeometry>
        </mxCell>
        <mxCell id="_SwUfsmoG6oZr8ZcNo1T-47" value="&lt;div&gt;Controls&lt;/div&gt;" style="rounded=0;whiteSpace=wrap;html=1;fillColor=#f8cecc;strokeColor=#b85450;" parent="1" vertex="1">
          <mxGeometry x="460" y="480" width="100" height="50" as="geometry" />
        </mxCell>
        <mxCell id="_SwUfsmoG6oZr8ZcNo1T-51" value="" style="endArrow=none;html=1;rounded=0;entryX=0;entryY=0.5;entryDx=0;entryDy=0;" parent="1" target="_SwUfsmoG6oZr8ZcNo1T-47" edge="1">
          <mxGeometry width="50" height="50" relative="1" as="geometry">
            <mxPoint x="430" y="505" as="sourcePoint" />
            <mxPoint x="420" y="480" as="targetPoint" />
          </mxGeometry>
        </mxCell>
        <mxCell id="_SwUfsmoG6oZr8ZcNo1T-54" value="Enemy" style="rounded=0;whiteSpace=wrap;html=1;fillColor=#dae8fc;strokeColor=#6c8ebf;" parent="1" vertex="1">
          <mxGeometry x="300" y="620" width="100" height="50" as="geometry" />
        </mxCell>
        <mxCell id="_SwUfsmoG6oZr8ZcNo1T-55" value="Enemy Controller" style="rounded=0;whiteSpace=wrap;html=1;fillColor=#fff2cc;strokeColor=#d6b656;" parent="1" vertex="1">
          <mxGeometry x="140" y="590" width="100" height="50" as="geometry" />
        </mxCell>
        <mxCell id="_SwUfsmoG6oZr8ZcNo1T-56" value="" style="endArrow=classic;html=1;rounded=0;entryX=0;entryY=0.5;entryDx=0;entryDy=0;" parent="1" target="_SwUfsmoG6oZr8ZcNo1T-54" edge="1">
          <mxGeometry width="50" height="50" relative="1" as="geometry">
            <mxPoint x="270" y="645" as="sourcePoint" />
            <mxPoint x="280" y="500" as="targetPoint" />
          </mxGeometry>
        </mxCell>
        <mxCell id="_SwUfsmoG6oZr8ZcNo1T-57" value="Type" style="rounded=0;whiteSpace=wrap;html=1;fillColor=#f8cecc;strokeColor=#b85450;" parent="1" vertex="1">
          <mxGeometry x="460" y="560" width="100" height="50" as="geometry" />
        </mxCell>
        <mxCell id="_SwUfsmoG6oZr8ZcNo1T-58" value="Speed" style="rounded=0;whiteSpace=wrap;html=1;fillColor=#f8cecc;strokeColor=#b85450;" parent="1" vertex="1">
          <mxGeometry x="460" y="620" width="100" height="50" as="geometry" />
        </mxCell>
        <mxCell id="_SwUfsmoG6oZr8ZcNo1T-59" value="&lt;div&gt;Velocity&lt;/div&gt;" style="rounded=0;whiteSpace=wrap;html=1;fillColor=#f8cecc;strokeColor=#b85450;" parent="1" vertex="1">
          <mxGeometry x="460" y="680" width="100" height="50" as="geometry" />
        </mxCell>
        <mxCell id="_SwUfsmoG6oZr8ZcNo1T-60" value="" style="endArrow=none;html=1;rounded=0;entryX=0;entryY=0.5;entryDx=0;entryDy=0;" parent="1" target="_SwUfsmoG6oZr8ZcNo1T-59" edge="1">
          <mxGeometry width="50" height="50" relative="1" as="geometry">
            <mxPoint x="430" y="705" as="sourcePoint" />
            <mxPoint x="280" y="500" as="targetPoint" />
          </mxGeometry>
        </mxCell>
        <mxCell id="_SwUfsmoG6oZr8ZcNo1T-62" value="" style="endArrow=none;html=1;rounded=0;entryX=0;entryY=0.5;entryDx=0;entryDy=0;" parent="1" target="_SwUfsmoG6oZr8ZcNo1T-58" edge="1">
          <mxGeometry width="50" height="50" relative="1" as="geometry">
            <mxPoint x="430" y="645" as="sourcePoint" />
            <mxPoint x="380" y="650" as="targetPoint" />
          </mxGeometry>
        </mxCell>
        <mxCell id="_SwUfsmoG6oZr8ZcNo1T-65" value="" style="endArrow=none;html=1;rounded=0;entryX=0;entryY=0.5;entryDx=0;entryDy=0;" parent="1" edge="1">
          <mxGeometry width="50" height="50" relative="1" as="geometry">
            <mxPoint x="430" y="584.8" as="sourcePoint" />
            <mxPoint x="460" y="584.8" as="targetPoint" />
          </mxGeometry>
        </mxCell>
        <mxCell id="_SwUfsmoG6oZr8ZcNo1T-66" value="" style="endArrow=none;html=1;rounded=0;" parent="1" edge="1">
          <mxGeometry width="50" height="50" relative="1" as="geometry">
            <mxPoint x="430" y="705" as="sourcePoint" />
            <mxPoint x="430" y="585" as="targetPoint" />
          </mxGeometry>
        </mxCell>
        <mxCell id="_SwUfsmoG6oZr8ZcNo1T-67" value="" style="endArrow=classic;html=1;rounded=0;entryX=1;entryY=0.5;entryDx=0;entryDy=0;" parent="1" target="_SwUfsmoG6oZr8ZcNo1T-54" edge="1">
          <mxGeometry width="50" height="50" relative="1" as="geometry">
            <mxPoint x="430" y="645" as="sourcePoint" />
            <mxPoint x="520" y="610" as="targetPoint" />
          </mxGeometry>
        </mxCell>
        <mxCell id="_SwUfsmoG6oZr8ZcNo1T-70" value="Projectile" style="rounded=0;whiteSpace=wrap;html=1;fillColor=#dae8fc;strokeColor=#6c8ebf;" parent="1" vertex="1">
          <mxGeometry x="300" y="790" width="100" height="50" as="geometry" />
        </mxCell>
        <mxCell id="_SwUfsmoG6oZr8ZcNo1T-73" value="Projectile Source" style="rounded=0;whiteSpace=wrap;html=1;fillColor=#f8cecc;strokeColor=#b85450;" parent="1" vertex="1">
          <mxGeometry x="460" y="790" width="100" height="50" as="geometry" />
        </mxCell>
        <mxCell id="_SwUfsmoG6oZr8ZcNo1T-74" value="" style="endArrow=none;html=1;rounded=0;entryX=0;entryY=0.5;entryDx=0;entryDy=0;" parent="1" target="_SwUfsmoG6oZr8ZcNo1T-73" edge="1">
          <mxGeometry width="50" height="50" relative="1" as="geometry">
            <mxPoint x="430" y="815" as="sourcePoint" />
            <mxPoint x="380" y="820" as="targetPoint" />
          </mxGeometry>
        </mxCell>
        <mxCell id="_SwUfsmoG6oZr8ZcNo1T-75" value="" style="endArrow=classic;html=1;rounded=0;entryX=1;entryY=0.5;entryDx=0;entryDy=0;" parent="1" target="_SwUfsmoG6oZr8ZcNo1T-70" edge="1">
          <mxGeometry width="50" height="50" relative="1" as="geometry">
            <mxPoint x="430" y="815" as="sourcePoint" />
            <mxPoint x="520" y="780" as="targetPoint" />
          </mxGeometry>
        </mxCell>
        <mxCell id="_SwUfsmoG6oZr8ZcNo1T-77" value="" style="endArrow=classic;html=1;rounded=0;exitX=1;exitY=0.5;exitDx=0;exitDy=0;" parent="1" source="_SwUfsmoG6oZr8ZcNo1T-83" target="_SwUfsmoG6oZr8ZcNo1T-2" edge="1">
          <mxGeometry width="50" height="50" relative="1" as="geometry">
            <mxPoint x="260" y="135" as="sourcePoint" />
            <mxPoint x="349.82" y="80" as="targetPoint" />
          </mxGeometry>
        </mxCell>
        <mxCell id="_SwUfsmoG6oZr8ZcNo1T-78" value="Status Bar" style="rounded=0;whiteSpace=wrap;html=1;fillColor=#dae8fc;strokeColor=#6c8ebf;" parent="1" vertex="1">
          <mxGeometry x="300" y="900" width="100" height="50" as="geometry" />
        </mxCell>
        <mxCell id="_SwUfsmoG6oZr8ZcNo1T-79" value="Health Bar Controller" style="rounded=0;whiteSpace=wrap;html=1;fillColor=#fff2cc;strokeColor=#d6b656;" parent="1" vertex="1">
          <mxGeometry x="140" y="980" width="100" height="50" as="geometry" />
        </mxCell>
        <mxCell id="_SwUfsmoG6oZr8ZcNo1T-80" value="" style="endArrow=classic;html=1;rounded=0;exitX=1;exitY=0.5;exitDx=0;exitDy=0;entryX=0;entryY=0.5;entryDx=0;entryDy=0;" parent="1" source="_SwUfsmoG6oZr8ZcNo1T-79" target="_SwUfsmoG6oZr8ZcNo1T-81" edge="1">
          <mxGeometry width="50" height="50" relative="1" as="geometry">
            <mxPoint x="230" y="830" as="sourcePoint" />
            <mxPoint x="510" y="950" as="targetPoint" />
          </mxGeometry>
        </mxCell>
        <mxCell id="_SwUfsmoG6oZr8ZcNo1T-81" value="Health Bar" style="rounded=0;whiteSpace=wrap;html=1;fillColor=#dae8fc;strokeColor=#6c8ebf;" parent="1" vertex="1">
          <mxGeometry x="300" y="980" width="100" height="50" as="geometry" />
        </mxCell>
        <mxCell id="_SwUfsmoG6oZr8ZcNo1T-82" value="" style="endArrow=classic;html=1;rounded=0;entryX=0.5;entryY=1;entryDx=0;entryDy=0;exitX=0.5;exitY=0;exitDx=0;exitDy=0;" parent="1" source="_SwUfsmoG6oZr8ZcNo1T-81" target="_SwUfsmoG6oZr8ZcNo1T-78" edge="1">
          <mxGeometry width="50" height="50" relative="1" as="geometry">
            <mxPoint x="430" y="925" as="sourcePoint" />
            <mxPoint x="520" y="890" as="targetPoint" />
          </mxGeometry>
        </mxCell>
        <mxCell id="_SwUfsmoG6oZr8ZcNo1T-83" value="Game Model" style="rounded=0;whiteSpace=wrap;html=1;fillColor=#f8cecc;strokeColor=#b85450;" parent="1" vertex="1">
          <mxGeometry x="140" y="110" width="100" height="50" as="geometry" />
        </mxCell>
        <mxCell id="_SwUfsmoG6oZr8ZcNo1T-84" value="" style="endArrow=classic;html=1;rounded=0;entryX=0.5;entryY=0;entryDx=0;entryDy=0;exitX=0.5;exitY=1;exitDx=0;exitDy=0;" parent="1" source="_SwUfsmoG6oZr8ZcNo1T-85" target="_SwUfsmoG6oZr8ZcNo1T-83" edge="1">
          <mxGeometry width="50" height="50" relative="1" as="geometry">
            <mxPoint x="210" y="80" as="sourcePoint" />
            <mxPoint x="300" y="230" as="targetPoint" />
          </mxGeometry>
        </mxCell>
        <mxCell id="_SwUfsmoG6oZr8ZcNo1T-85" value="Level" style="rounded=0;whiteSpace=wrap;html=1;fillColor=#f8cecc;strokeColor=#b85450;" parent="1" vertex="1">
          <mxGeometry x="140" y="30" width="100" height="50" as="geometry" />
        </mxCell>
        <mxCell id="_SwUfsmoG6oZr8ZcNo1T-87" value="&lt;div&gt;Game Object&lt;/div&gt;" style="rounded=0;whiteSpace=wrap;html=1;fillColor=#dae8fc;strokeColor=#6c8ebf;" parent="1" vertex="1">
          <mxGeometry x="810" y="80" width="100" height="50" as="geometry" />
        </mxCell>
        <mxCell id="_SwUfsmoG6oZr8ZcNo1T-88" value="&lt;div&gt;Global&amp;nbsp;&lt;/div&gt;&lt;div&gt;Component&lt;/div&gt;" style="rounded=0;whiteSpace=wrap;html=1;fillColor=#d5e8d4;strokeColor=#82b366;" parent="1" vertex="1">
          <mxGeometry x="810" y="150" width="100" height="50" as="geometry" />
        </mxCell>
        <mxCell id="_SwUfsmoG6oZr8ZcNo1T-89" value="Component" style="rounded=0;whiteSpace=wrap;html=1;fillColor=#fff2cc;strokeColor=#d6b656;" parent="1" vertex="1">
          <mxGeometry x="810" y="220" width="100" height="50" as="geometry" />
        </mxCell>
        <mxCell id="_SwUfsmoG6oZr8ZcNo1T-90" value="Attribute" style="rounded=0;whiteSpace=wrap;html=1;fillColor=#f8cecc;strokeColor=#b85450;" parent="1" vertex="1">
          <mxGeometry x="810" y="290" width="100" height="50" as="geometry" />
        </mxCell>
        <mxCell id="_SwUfsmoG6oZr8ZcNo1T-91" value="" style="rounded=0;whiteSpace=wrap;html=1;fillColor=none;" parent="1" vertex="1">
          <mxGeometry x="790" y="60" width="140" height="300" as="geometry" />
        </mxCell>
        <mxCell id="kJxiYYd2N2uasPvmxZ2f-1" value="&lt;div&gt;Enemy Collision&lt;/div&gt;&lt;div&gt;Trigger&lt;br&gt;&lt;/div&gt;" style="rounded=0;whiteSpace=wrap;html=1;fillColor=#fff2cc;strokeColor=#d6b656;" vertex="1" parent="1">
          <mxGeometry x="140" y="650" width="100" height="50" as="geometry" />
        </mxCell>
        <mxCell id="kJxiYYd2N2uasPvmxZ2f-2" value="" style="endArrow=none;html=1;rounded=0;exitX=1;exitY=0.5;exitDx=0;exitDy=0;" edge="1" parent="1" source="kJxiYYd2N2uasPvmxZ2f-1">
          <mxGeometry width="50" height="50" relative="1" as="geometry">
            <mxPoint x="350" y="720" as="sourcePoint" />
            <mxPoint x="270" y="675" as="targetPoint" />
          </mxGeometry>
        </mxCell>
        <mxCell id="kJxiYYd2N2uasPvmxZ2f-3" value="" style="endArrow=none;html=1;rounded=0;" edge="1" parent="1">
          <mxGeometry width="50" height="50" relative="1" as="geometry">
            <mxPoint x="270" y="675" as="sourcePoint" />
            <mxPoint x="270" y="615" as="targetPoint" />
          </mxGeometry>
        </mxCell>
        <mxCell id="kJxiYYd2N2uasPvmxZ2f-4" value="" style="endArrow=none;html=1;rounded=0;exitX=1;exitY=0.5;exitDx=0;exitDy=0;" edge="1" parent="1" source="_SwUfsmoG6oZr8ZcNo1T-55">
          <mxGeometry width="50" height="50" relative="1" as="geometry">
            <mxPoint x="350" y="720" as="sourcePoint" />
            <mxPoint x="270" y="615" as="targetPoint" />
          </mxGeometry>
        </mxCell>
        <mxCell id="kJxiYYd2N2uasPvmxZ2f-13" value="&lt;div&gt;Projectile&lt;/div&gt;&lt;div&gt;Controller&lt;br&gt;&lt;/div&gt;" style="rounded=0;whiteSpace=wrap;html=1;fillColor=#fff2cc;strokeColor=#d6b656;" vertex="1" parent="1">
          <mxGeometry x="140" y="760" width="100" height="50" as="geometry" />
        </mxCell>
        <mxCell id="kJxiYYd2N2uasPvmxZ2f-14" value="" style="endArrow=classic;html=1;rounded=0;entryX=0;entryY=0.5;entryDx=0;entryDy=0;" edge="1" parent="1">
          <mxGeometry width="50" height="50" relative="1" as="geometry">
            <mxPoint x="270" y="815" as="sourcePoint" />
            <mxPoint x="300" y="815" as="targetPoint" />
          </mxGeometry>
        </mxCell>
        <mxCell id="kJxiYYd2N2uasPvmxZ2f-15" value="&lt;div&gt;Projectile&lt;/div&gt;&lt;div&gt;Collision Trigger&lt;br&gt;&lt;/div&gt;" style="rounded=0;whiteSpace=wrap;html=1;fillColor=#fff2cc;strokeColor=#d6b656;" vertex="1" parent="1">
          <mxGeometry x="140" y="820" width="100" height="50" as="geometry" />
        </mxCell>
        <mxCell id="kJxiYYd2N2uasPvmxZ2f-16" value="" style="endArrow=none;html=1;rounded=0;exitX=1;exitY=0.5;exitDx=0;exitDy=0;" edge="1" parent="1" source="kJxiYYd2N2uasPvmxZ2f-15">
          <mxGeometry width="50" height="50" relative="1" as="geometry">
            <mxPoint x="350" y="890" as="sourcePoint" />
            <mxPoint x="270" y="845" as="targetPoint" />
          </mxGeometry>
        </mxCell>
        <mxCell id="kJxiYYd2N2uasPvmxZ2f-17" value="" style="endArrow=none;html=1;rounded=0;" edge="1" parent="1">
          <mxGeometry width="50" height="50" relative="1" as="geometry">
            <mxPoint x="270" y="845" as="sourcePoint" />
            <mxPoint x="270" y="785" as="targetPoint" />
          </mxGeometry>
        </mxCell>
        <mxCell id="kJxiYYd2N2uasPvmxZ2f-18" value="" style="endArrow=none;html=1;rounded=0;exitX=1;exitY=0.5;exitDx=0;exitDy=0;" edge="1" parent="1" source="kJxiYYd2N2uasPvmxZ2f-13">
          <mxGeometry width="50" height="50" relative="1" as="geometry">
            <mxPoint x="350" y="890" as="sourcePoint" />
            <mxPoint x="270" y="785" as="targetPoint" />
          </mxGeometry>
        </mxCell>
        <mxCell id="kJxiYYd2N2uasPvmxZ2f-19" value="" style="endArrow=none;html=1;rounded=0;" edge="1" parent="1">
          <mxGeometry width="50" height="50" relative="1" as="geometry">
            <mxPoint x="130" y="190" as="sourcePoint" />
            <mxPoint x="570" y="190" as="targetPoint" />
          </mxGeometry>
        </mxCell>
      </root>
    </mxGraphModel>
  </diagram>
</mxfile>
